# xmcd
#
# Track frame offsets:
#	150
#	14797
#	30689
#	47486
#	64576
#	86258
#	100653
#	114964
#	132001
#	148122
#	167115
#
# Disc length: 2499 seconds
#
# Revision: 11
# Processed by: cddbd v1.5.2PL0 Copyright (c) Steve Scherf et al.
# Submitted via: EZCDAudioConverter 7.1.5.1
#
DISCID=8809c10b
DTITLE=林俊杰 - 乐行者
DYEAR=2003
DGENRE=
TTITLE0=就是我
TTITLE1=会读书
TTITLE2=翅膀
TTITLE3=星球
TTITLE4=压力
TTITLE5=女儿家
TTITLE6=冻结
TTITLE7=星空下的吻
TTITLE8=让我心动的人
TTITLE9=会有那么一天
TTITLE10=不懂
EXTD=
EXTT0=
EXTT1=
EXTT2=
EXTT3=
EXTT4=
EXTT5=
EXTT6=
EXTT7=
EXTT8=
EXTT9=
EXTT10=
PLAYORDER=
